# xmcd CD database file
#
# Track frame offsets:
#	150
#	40064
#	58091
#	77328
#	101077
#	117425
#	138340
#	161289
#	174896
#	190739
#	210559
#	230136
#	251841
#	277398
#	289381
#	300440
#	324965
#
# Disc length: 4488 seconds
#
# Revision: 0
# Processed by: cddbd v1.5PL3 Copyright (c) Steve Scherf et al.
# Submitted via: CDex 1.40Release
#
DISCID=f0118611
DTITLE=Varios - essentials - CD4 The Blues
DYEAR=2003
DGENRE=Blues
TTITLE0=Riviera Paradise
TTITLE1=Summertime
TTITLE2=Lost In You
TTITLE3=Be Careful With A Fool
TTITLE4=Going Up To The Country, Paint My Mailbox Blue
TTITLE5=The Sky Is Crying
TTITLE6=Sweet Sixteen (live)
TTITLE7=Key To The Highway
TTITLE8=Swing Down Chariot
TTITLE9=Mannish Boy (live)
TTITLE10=Death Letter
TTITLE11=I'm Your Hoochie Coochie Man
TTITLE12=New Stranger Blues
TTITLE13=Will The Circle Be Unbroken
TTITLE14=I Put A Spell On You
TTITLE15=I Will Move On Up A Little Higher
TTITLE16=I'll Fly Away
EXTD=YEAR: 2003 ID3G: 0
EXTT0=
EXTT1=
EXTT2=
EXTT3=
EXTT4=
EXTT5=
EXTT6=
EXTT7=
EXTT8=
EXTT9=
EXTT10=
EXTT11=
EXTT12=
EXTT13=
EXTT14=
EXTT15=
EXTT16=
PLAYORDER=
